<svg width="28" height="29" viewBox="0 0 28 29" fill="none" xmlns="http://www.w3.org/2000/svg">
<path fill-rule="evenodd" clip-rule="evenodd" d="M26.885 21.7148L24.1749 24.3702L24.8137 28.1113C24.8287 28.2031 24.8194 28.2976 24.787 28.3844C24.7546 28.4711 24.7003 28.5471 24.6297 28.6044C24.5448 28.6673 24.4437 28.7025 24.3394 28.7051C24.262 28.7051 24.1942 28.6849 24.1167 28.6447L20.7485 26.8743L17.3899 28.6447C17.3092 28.6878 17.2185 28.7068 17.128 28.6997C17.0374 28.6926 16.9505 28.6597 16.8769 28.6044C16.7317 28.4837 16.664 28.2924 16.6931 28.1113L17.3318 24.3702L14.6218 21.7148C14.4863 21.5841 14.4379 21.3829 14.4959 21.1918C14.5443 21.0107 14.6992 20.8802 14.8831 20.85L18.6482 20.2965L20.3227 16.8873C20.4872 16.5454 21.0196 16.5454 21.1841 16.8873L22.8585 20.2965L26.6237 20.85C26.7124 20.8641 26.7955 20.9035 26.8639 20.9639C26.9322 21.0243 26.983 21.1031 27.0107 21.1918C27.0688 21.3829 27.0205 21.5841 26.885 21.7148ZM25.4815 21.7045L22.481 21.262C22.3165 21.2419 22.181 21.1413 22.1132 20.9904L20.7485 18.2246L19.3934 20.9904C19.3577 21.0631 19.3056 21.1258 19.2416 21.1731C19.1775 21.2204 19.1034 21.2509 19.0256 21.262L16.0155 21.7045L18.1835 23.8167C18.2997 23.9374 18.3578 24.1083 18.3287 24.2793L17.8157 27.2868L20.5356 25.8587C20.602 25.8195 20.677 25.7988 20.7533 25.7988C20.8297 25.7988 20.9047 25.8195 20.9711 25.8587L23.6909 27.2868L23.1779 24.2793C23.1489 24.1083 23.207 23.9374 23.3231 23.8167L25.4815 21.7045ZM22.6843 6.618C22.6843 6.89961 22.4713 7.12088 22.2003 7.12088H13.499C13.2376 7.12088 13.015 6.89961 13.015 6.618C13.015 6.33638 13.2376 6.11511 13.499 6.11511H22.2003C22.4713 6.11511 22.6843 6.33638 22.6843 6.618ZM22.6843 13.6687C22.6843 13.9503 22.4713 14.1716 22.2003 14.1716H13.499C13.2376 14.1716 13.015 13.9503 13.015 13.6687C13.015 13.3971 13.2376 13.1658 13.499 13.1658H22.2003C22.4713 13.1658 22.6843 13.3971 22.6843 13.6687ZM10.4501 4.42574L7.13996 8.45863C7.09529 8.51511 7.03908 8.56091 6.97549 8.59221C6.91191 8.62351 6.84251 8.63971 6.77216 8.63985C6.66569 8.63985 6.56885 8.59975 6.48174 8.52935L4.27491 6.80952C4.22299 6.77077 4.17915 6.72146 4.14601 6.66465C4.11287 6.60784 4.09113 6.54429 4.08209 6.47852C4.07305 6.41276 4.07693 6.34577 4.09343 6.28159C4.10994 6.21742 4.13875 6.1576 4.17815 6.10529C4.33301 5.87397 4.63312 5.83364 4.84606 6.00462L6.69465 7.44304L9.71447 3.77209C9.88869 3.56088 10.1985 3.54047 10.4018 3.72151C10.605 3.90255 10.6243 4.21453 10.4501 4.42574ZM10.4501 11.4759L7.13996 15.5093C7.06165 15.6087 6.94927 15.6726 6.8265 15.6876C6.70374 15.7026 6.58011 15.6676 6.48174 15.5898L4.27491 13.8597C4.22299 13.821 4.17915 13.7716 4.14601 13.7148C4.11287 13.658 4.09113 13.595 4.08209 13.5292C4.07305 13.4634 4.07693 13.3965 4.09343 13.3323C4.10994 13.2681 4.13875 13.2078 4.17815 13.1555C4.33301 12.9342 4.63312 12.8843 4.84606 13.0553L6.69465 14.4932L9.71447 10.8223C9.88869 10.6111 10.1985 10.5911 10.4018 10.7722C10.605 10.9532 10.6243 11.2748 10.4501 11.4759ZM10.4018 18.3253C10.605 18.5063 10.6243 18.8281 10.4501 19.0393L7.13996 23.0624C7.06165 23.1618 6.94927 23.2256 6.8265 23.2406C6.70374 23.2557 6.58011 23.2207 6.48174 23.1429L4.27491 21.4133C4.0523 21.2524 4.01361 20.9303 4.17815 20.709C4.33301 20.4878 4.63312 20.4474 4.84606 20.6084L6.69465 22.0566L9.71447 18.3857C9.88869 18.1745 10.1985 18.1442 10.4018 18.3253ZM13.9829 26.7736C13.9829 27.0452 13.77 27.2765 13.499 27.2765H6.33653C3.09409 27.2765 0.451782 24.5211 0.451782 21.1417V6.20597C0.451782 2.8266 3.09409 0.070694 6.33653 0.070694H20.6711C23.9135 0.070694 26.5558 2.8266 26.5558 6.20597V18.2447C26.5558 18.5263 26.3332 18.7476 26.0719 18.7476C25.8009 18.7476 25.5879 18.5263 25.5879 18.2447V6.20597C25.5879 3.37977 23.3812 1.07646 20.6711 1.07646H6.33653C3.62643 1.07646 1.41968 3.37977 1.41968 6.20597V21.1417C1.41968 23.9679 3.62643 26.2707 6.33653 26.2707H13.499C13.77 26.2707 13.9829 26.492 13.9829 26.7736Z" fill="black"/>
</svg>
