<svg width="30" height="31" viewBox="0 0 30 31" fill="none" xmlns="http://www.w3.org/2000/svg">
<path fill-rule="evenodd" clip-rule="evenodd" d="M29.0368 15.4455C29.0368 23.7632 22.5229 30.532 14.5184 30.532C6.51392 30.532 0 23.7632 0 15.4455C0 7.1278 6.51392 0.35899 14.5184 0.35899C22.5229 0.35899 29.0368 7.1278 29.0368 15.4455ZM28.0689 15.4455C28.0689 7.68097 21.9905 1.36476 14.5184 1.36476C7.04627 1.36476 0.967894 7.68097 0.967894 15.4455C0.967894 23.21 7.04627 29.5262 14.5184 29.5262C21.9905 29.5262 28.0689 23.21 28.0689 15.4455ZM16.4542 15.3851C16.4542 16.4914 15.5831 17.3966 14.5184 17.3966C13.6183 17.3966 12.8633 16.7529 12.6503 15.888H9.19499C8.92398 15.888 8.71104 15.6667 8.71104 15.3851C8.71104 15.1035 8.92398 14.8822 9.19499 14.8822H12.6503C12.8245 14.1782 13.3569 13.6248 14.0345 13.4438V8.34472C14.0345 8.0631 14.2474 7.84183 14.5184 7.84183C14.7894 7.84183 15.0023 8.0631 15.0023 8.34472V13.4438C15.8347 13.665 16.4542 14.4497 16.4542 15.3851ZM15.4863 15.3851C15.4863 14.8319 15.0507 14.3793 14.5184 14.3793C13.9861 14.3793 13.5505 14.8319 13.5505 15.3851C13.5505 15.9383 13.9861 16.3908 14.5184 16.3908C15.0507 16.3908 15.4863 15.9383 15.4863 15.3851ZM14.0345 4.82454V4.32165C14.0345 4.04004 14.2474 3.81877 14.5184 3.81877C14.7894 3.81877 15.0023 4.04004 15.0023 4.32165V4.82454C15.0023 5.10615 14.7894 5.32742 14.5184 5.32742C14.2474 5.32742 14.0345 5.10615 14.0345 4.82454ZM15.0023 25.9456V26.4485C15.0023 26.7301 14.7894 26.9514 14.5184 26.9514C14.2474 26.9514 14.0345 26.7301 14.0345 26.4485V25.9456C14.0345 25.664 14.2474 25.4427 14.5184 25.4427C14.7894 25.4427 15.0023 25.664 15.0023 25.9456ZM25.6492 15.3851C25.6492 15.6667 25.4362 15.888 25.1652 15.888H24.6813C24.4103 15.888 24.1973 15.6667 24.1973 15.3851C24.1973 15.1035 24.4103 14.8822 24.6813 14.8822H25.1652C25.4362 14.8822 25.6492 15.1035 25.6492 15.3851ZM4.83947 15.3851C4.83947 15.6667 4.62653 15.888 4.35552 15.888H3.87157C3.60056 15.888 3.38763 15.6667 3.38763 15.3851C3.38763 15.1035 3.60056 14.8822 3.87157 14.8822H4.35552C4.62653 14.8822 4.83947 15.1035 4.83947 15.3851ZM22.3874 7.20832C22.581 7.39941 22.581 7.72096 22.3874 7.91206L22.0486 8.27449C21.9519 8.37507 21.8357 8.41494 21.7002 8.41494C21.5744 8.41494 21.4581 8.37507 21.3614 8.27449C21.1775 8.07334 21.1775 7.76159 21.3614 7.56043L21.7002 7.20832C21.8938 7.00717 22.2035 7.00717 22.3874 7.20832ZM7.67545 22.4957C7.85935 22.6968 7.85935 23.0091 7.67545 23.2102L7.33659 23.5618C7.29094 23.6096 7.23665 23.6479 7.17685 23.6738C7.11705 23.6997 7.05294 23.713 6.98816 23.7131C6.86234 23.7131 6.74621 23.6624 6.64942 23.5618C6.45585 23.3707 6.45585 23.0489 6.64942 22.8478L6.98816 22.4957C7.18174 22.3046 7.48187 22.3046 7.67545 22.4957ZM22.3874 22.8478C22.581 23.0489 22.581 23.3707 22.3874 23.5618C22.2906 23.6624 22.1745 23.7131 22.0486 23.7131C21.9131 23.7131 21.8067 23.6624 21.7002 23.5618L21.3614 23.2102C21.1775 23.0091 21.1775 22.6968 21.3614 22.4957C21.5549 22.3046 21.8551 22.3046 22.0486 22.4957L22.3874 22.8478ZM7.67545 7.56043C7.85935 7.76159 7.85935 8.07334 7.67545 8.27449C7.57866 8.37507 7.46242 8.41494 7.33659 8.41494C7.20109 8.41494 7.08495 8.37507 6.98816 8.27449L6.64942 7.91206C6.45585 7.72096 6.45585 7.39941 6.64942 7.20832C6.83332 7.00717 7.14301 7.00717 7.33659 7.20832L7.67545 7.56043Z" fill="black"/>
</svg>
